<svg width="386.27000732421874px" height="75.68000183105468px" xmlns="http://www.w3.org/2000/svg" viewBox="56.86499633789063 37.15999908447266 386.27000732421874 75.68000183105468" style="background: none;" preserveAspectRatio="xMidYMid"><defs><filter id="editing-extrude-glow"><feFlood flood-color="#333333" result="flood-1"></feFlood><feMorphology operator="erode" radius="1" in="SourceAlpha" result="erode"></feMorphology><feComposite operator="in" in="flood-1" in2="erode" result="comp1"></feComposite><feConvolveMatrix order="3,3" divisor="1" in="comp1" result="convolve" kernelMatrix="0 0 0 1 1 1 0 0 0"></feConvolveMatrix><feOffset dx="-3" dy="0" in="convolve" result="extrude"></feOffset><feComposite operator="in" in="flood-1" in2="extrude" result="comp-extrude"></feComposite><feFlood flood-color="#000000" result="flood-2"></feFlood><feComposite operator="in" in="flood-2" in2="SourceAlpha" result="comp2"></feComposite><feMorphology operator="dilate" radius="1" in="comp2" result="dilate"></feMorphology><feOffset dx="-4.5" dy="0" in="dilate" result="offset"></feOffset><feGaussianBlur in="offset" stdDeviation="5.8" result="blur"></feGaussianBlur><feComponentTransfer in="blur" result="shadow"><feFuncA type="linear" slope="0.8" intercept="-0.2"></feFuncA></feComponentTransfer><feMerge><feMergeNode in="shadow"></feMergeNode><feMergeNode in="comp-extrude"></feMergeNode><feMergeNode in="SourceGraphic"></feMergeNode></feMerge></filter></defs><g filter="url(#editing-extrude-glow)"><g transform="translate(115.91502225399017, 87.95000076293945)"><path d="M4.20 0L0.35 0L4.55-23.10L12.08-23.10L17.54-7.21L20.44-23.10L24.33-23.07L20.06 0L12.04 0L7.00-15.30L4.20 0ZM24.85-0.18L24.85-0.18L29.26-23.10L29.26-23.10Q33.39-23.45 36.05-23.45L36.05-23.45L36.05-23.45Q38.71-23.45 40.43-23.22L40.43-23.22L40.43-23.22Q42.14-23.00 43.30-22.40L43.30-22.40L43.30-22.40Q45.61-21.28 45.61-18.20L45.61-18.20L45.61-18.20Q45.61-16.42 44.07-14.91L44.07-14.91L44.07-14.91Q42.63-13.55 41.06-13.23L41.06-13.23L41.06-13.23Q42.74-12.95 43.93-11.69L43.93-11.69L43.93-11.69Q45.19-10.36 45.19-8.29L45.19-8.29L45.19-8.29Q45.19-4.31 42.21-1.98L42.21-1.98L42.21-1.98Q39.24 0.35 33.39 0.35L33.39 0.35L33.39 0.35Q29.37 0.35 24.85-0.18ZM34.37-11.27L32.62-2.21L32.62-2.21Q32.94-2.17 33.01-2.17L33.01-2.17L33.32-2.17L33.32-2.17Q36.19-2.17 37.42-4.06L37.42-4.06L37.42-4.06Q38.33-5.53 38.33-8.23L38.33-8.23L38.33-8.23Q38.33-9.66 37.40-10.43L37.40-10.43L37.40-10.43Q36.47-11.20 34.37-11.27L34.37-11.27ZM39.69-18.17L39.69-18.17L39.69-18.17Q39.69-21.07 36.89-21.07L36.89-21.07L36.58-21.07L36.58-21.07Q36.44-21.07 36.23-21.04L36.23-21.04L34.83-13.65L35.18-13.65L35.18-13.65Q39.69-13.76 39.69-18.17ZM62.69 0.70L62.69 0.70L62.69 0.70Q58.21 0.70 57.79-5.67L57.79-5.67L51.77-5.67L51.77-5.67Q51.07-4.06 50.58-2.66L50.58-2.66L49.67 0L44.77 0L55.79-23.10L63.32-23.10L64.79-6.09L64.79-6.09Q65.14-2.42 66.54-1.33L66.54-1.33L66.54-1.33Q65.52 0.70 62.69 0.70ZM54.78-12.67L52.85-8.23L57.68-8.23L57.26-17.22L57.26-18.17L54.78-12.67ZM68.22-0.18L68.22-0.18L72.63-23.10L72.63-23.10Q76.76-23.45 79.42-23.45L79.42-23.45L79.42-23.45Q82.08-23.45 83.79-23.22L83.79-23.22L83.79-23.22Q85.51-23.00 86.66-22.40L86.66-22.40L86.66-22.40Q88.97-21.28 88.97-18.20L88.97-18.20L88.97-18.20Q88.97-16.42 87.43-14.91L87.43-14.91L87.43-14.91Q86.00-13.55 84.42-13.23L84.42-13.23L84.42-13.23Q86.10-12.95 87.29-11.69L87.29-11.69L87.29-11.69Q88.55-10.36 88.55-8.29L88.55-8.29L88.55-8.29Q88.55-4.31 85.58-1.98L85.58-1.98L85.58-1.98Q82.60 0.35 76.76 0.35L76.76 0.35L76.76 0.35Q72.73 0.35 68.22-0.18ZM77.74-11.27L75.99-2.21L75.99-2.21Q76.30-2.17 76.37-2.17L76.37-2.17L76.69-2.17L76.69-2.17Q79.56-2.17 80.78-4.06L80.78-4.06L80.78-4.06Q81.69-5.53 81.69-8.23L81.69-8.23L81.69-8.23Q81.69-9.66 80.76-10.43L80.76-10.43L80.76-10.43Q79.84-11.20 77.74-11.27L77.74-11.27ZM83.06-18.17L83.06-18.17L83.06-18.17Q83.06-21.07 80.26-21.07L80.26-21.07L79.94-21.07L79.94-21.07Q79.80-21.07 79.59-21.04L79.59-21.04L78.19-13.65L78.54-13.65L78.54-13.65Q83.06-13.76 83.06-18.17ZM101.82-9.84L101.82-9.84L101.82-9.84Q103.08-12.08 103.08-14.35L103.08-14.35L103.08-14.35Q103.08-15.86 101.99-15.86L101.99-15.86L101.99-15.86Q101.15-15.86 100.28-14.42L100.28-14.42L100.28-14.42Q99.37-12.99 99.09-11.13L99.09-11.13L97.27 0L90.02 0.70L93.59-17.85L99.37-18.55L98.74-15.02L98.74-15.02Q100.45-18.55 104.30-18.55L104.30-18.55L104.30-18.55Q106.33-18.55 107.43-17.50L107.43-17.50L107.43-17.50Q108.54-16.45 108.54-14.30L108.54-14.30L108.54-14.30Q108.54-12.15 107.12-10.78L107.12-10.78L107.12-10.78Q105.70-9.42 103.29-9.42L103.29-9.42L103.29-9.42Q102.24-9.42 101.82-9.84ZM110.62-1.05L110.62-1.05L110.62-1.05Q109.80-1.96 109.43-3.40L109.43-3.40L109.43-3.40Q109.06-4.83 109.06-7.18L109.06-7.18L109.06-7.18Q109.06-9.52 109.87-11.66L109.87-11.66L109.87-11.66Q110.67-13.79 112.14-15.33L112.14-15.33L112.14-15.33Q115.15-18.55 120.12-18.55L120.12-18.55L120.12-18.55Q121.91-18.55 123.20-17.96L123.20-17.96L129.19-18.55L126.60-4.90L126.60-4.90Q126.49-4.48 126.49-3.71L126.49-3.71L126.49-3.71Q126.49-2.94 126.96-2.45L126.96-2.45L126.96-2.45Q127.44-1.96 128.14-1.89L128.14-1.89L128.14-1.89Q127.79-0.70 126.51 0L126.51 0L126.51 0Q125.23 0.70 123.80 0.70L123.80 0.70L123.80 0.70Q122.36 0.70 121.40 0.16L121.40 0.16L121.40 0.16Q120.44-0.39 120.16-1.30L120.16-1.30L120.16-1.30Q119.60-0.42 118.41 0.14L118.41 0.14L118.41 0.14Q117.22 0.70 115.62 0.70L115.62 0.70L115.62 0.70Q114.03 0.70 112.74 0.28L112.74 0.28L112.74 0.28Q111.44-0.14 110.62-1.05ZM118.00-15.26L118.00-15.26L118.00-15.26Q117.60-14.63 117.25-13.56L117.25-13.56L117.25-13.56Q116.90-12.50 116.32-9.64L116.32-9.64L116.32-9.64Q115.75-6.79 115.75-4.76L115.75-4.76L115.75-4.76Q115.75-2.73 116.06-2.14L116.06-2.14L116.06-2.14Q116.38-1.54 116.94-1.54L116.94-1.54L116.94-1.54Q118.06-1.54 118.88-2.61L118.88-2.61L118.88-2.61Q119.70-3.68 120.02-5.57L120.02-5.57L121.87-15.82L121.87-15.82Q121.14-16.45 120.28-16.45L120.28-16.45L120.28-16.45Q119.42-16.45 118.91-16.17L118.91-16.17L118.91-16.17Q118.41-15.89 118.00-15.26ZM148.12-14.56L148.12-14.56L148.12-14.56Q148.12-13.09 146.90-12.18L146.90-12.18L146.90-12.18Q145.67-11.27 143.68-11.27L143.68-11.27L143.68-11.27Q142.84-11.27 142.35-11.52L142.35-11.52L142.35-11.52Q142.73-12.43 142.85-13.56L142.85-13.56L142.85-13.56Q142.98-14.70 142.98-15.02L142.98-15.02L142.98-15.02Q142.98-16.49 141.96-16.49L141.96-16.49L141.96-16.49Q141.26-16.49 140.47-15.61L140.47-15.61L140.47-15.61Q139.69-14.74 139.02-13.37L139.02-13.37L139.02-13.37Q137.55-10.22 137.55-7.04L137.55-7.04L137.55-7.04Q137.55-5.29 138.22-4.50L138.22-4.50L138.22-4.50Q138.88-3.71 140.35-3.71L140.35-3.71L140.35-3.71Q142.38-3.71 143.99-5.39L143.99-5.39L143.99-5.39Q144.45-5.92 144.69-6.51L144.69-6.51L144.69-6.51Q146.02-5.81 146.02-3.89L146.02-3.89L146.02-3.89Q146.02-1.93 143.85-0.63L143.85-0.63L143.85-0.63Q141.61 0.70 138.04 0.70L138.04 0.70L138.04 0.70Q130.94 0.70 130.94-6.83L130.94-6.83L130.94-6.83Q130.94-12.32 134.05-15.47L134.05-15.47L134.05-15.47Q137.06-18.55 142.59-18.55L142.59-18.55L142.59-18.55Q148.12-18.55 148.12-14.56ZM158.10-16.59L158.10-16.59L158.10-16.59Q159.99-18.55 163.98-18.55L163.98-18.55L163.98-18.55Q166.18-18.55 167.39-17.38L167.39-17.38L167.39-17.38Q168.60-16.21 168.60-14.05L168.60-14.05L168.60-14.05Q168.60-11.90 167.39-10.38L167.39-10.38L167.39-10.38Q166.18-8.86 163.94-8.23L163.94-8.23L163.94-8.23Q164.12-7.53 164.36-6.79L164.36-6.79L164.85-5.39L164.85-5.39Q165.52-3.61 166.04-2.98L166.04-2.98L166.04-2.98Q166.57-2.35 167.27-2.14L167.27-2.14L167.27-2.14Q166.88-0.70 165.48 0.07L165.48 0.07L165.48 0.07Q164.36 0.70 162.82 0.70L162.82 0.70L162.82 0.70Q158.31 0.70 157.71-6.27L157.71-6.27L157.71-6.27Q157.61-7.25 157.61-8.23L157.61-8.23L157.61-8.23Q159.36-8.72 160.58-10.36L160.58-10.36L160.58-10.36Q161.81-12.01 161.81-13.93L161.81-13.93L161.81-13.93Q161.81-15.86 160.44-15.86L160.44-15.86L160.44-15.86Q159.46-15.86 158.69-14.77L158.69-14.77L158.69-14.77Q157.92-13.69 157.57-11.83L157.57-11.83L155.26 0L148.19 0.70L153.09-24.50L160.13-25.20L159.32-21.04L159.32-21.04Q158.80-18.10 158.10-16.59ZM184.38-5.92L184.38-5.92L184.38-5.92Q185.26-5.32 185.26-4.01L185.26-4.01L185.26-4.01Q185.26-2.70 184.59-1.86L184.59-1.86L184.59-1.86Q183.93-1.02 182.84-0.46L182.84-0.46L182.84-0.46Q180.60 0.70 178.19 0.70L178.19 0.70L178.19 0.70Q175.77 0.70 174.35 0.18L174.35 0.18L174.35 0.18Q172.94-0.35 171.99-1.33L171.99-1.33L171.99-1.33Q170.14-3.19 170.14-6.58L170.14-6.58L170.14-6.58Q170.14-11.87 173.01-15.09L173.01-15.09L173.01-15.09Q176.09-18.55 181.44-18.55L181.44-18.55L181.44-18.55Q184.77-18.55 186.41-17.15L186.41-17.15L186.41-17.15Q187.64-16.10 187.64-14.39L187.64-14.39L187.64-14.39Q187.64-8.23 177.00-8.23L177.00-8.23L177.00-8.23Q176.86-7.32 176.86-6.55L176.86-6.55L176.86-6.55Q176.86-4.94 177.57-4.32L177.57-4.32L177.57-4.32Q178.29-3.71 179.62-3.71L179.62-3.71L179.62-3.71Q180.95-3.71 182.37-4.32L182.37-4.32L182.37-4.32Q183.79-4.94 184.38-5.92ZM177.24-9.73L177.24-9.73L177.24-9.73Q179.73-9.73 181.16-11.27L181.16-11.27L181.16-11.27Q182.60-12.74 182.60-15.09L182.60-15.09L182.60-15.09Q182.60-15.89 182.30-16.33L182.30-16.33L182.30-16.33Q182-16.77 181.41-16.77L181.41-16.77L181.41-16.77Q180.81-16.77 180.30-16.54L180.30-16.54L180.30-16.54Q179.80-16.31 179.27-15.54L179.27-15.54L179.27-15.54Q177.98-13.79 177.24-9.73ZM189.39-3.50L189.39-3.50L189.39-3.50Q189.39-4.45 189.88-6.83L189.88-6.83L191.73-16.28L189.67-16.28L189.81-17.33L189.81-17.33Q194.01-18.59 198.07-21.67L198.07-21.67L199.75-21.67L198.91-17.85L201.64-17.85L201.32-16.28L198.63-16.28L196.84-6.83L196.84-6.83Q196.39-4.66 196.39-3.92L196.39-3.92L196.39-3.92Q196.39-2.24 197.86-1.89L197.86-1.89L197.86-1.89Q197.51-0.70 196.25 0L196.25 0L196.25 0Q194.99 0.70 193.20 0.70L193.20 0.70L193.20 0.70Q191.42 0.70 190.40-0.42L190.40-0.42L190.40-0.42Q189.39-1.54 189.39-3.50ZM214.52-2.63L214.52-2.63L214.52-2.63Q214.52-5.08 215.50-9.98L215.50-9.98L210.31-9.98L208.39 0L201.08 0L205.52-23.10L212.91-23.10L210.88-12.78L216.06-12.78L217.98-23.10L225.37-23.10L225.37-23.10Q224.88-20.51 224.25-17.61L224.25-17.61L223.06-11.90L223.06-11.90Q221.73-5.25 221.73-2.35L221.73-2.35L221.73-2.35Q221.73-1.16 222.11-0.49L222.11-0.49L222.11-0.49Q220.36 0.70 218.31 0.70L218.31 0.70L218.31 0.70Q216.27 0.70 215.39-0.28L215.39-0.28L215.39-0.28Q214.52-1.26 214.52-2.63ZM237.44-1.47L237.44-1.47L237.44-1.47Q235.76 0.70 231.60 0.70L231.60 0.70L231.60 0.70Q229.43 0.70 227.85-0.61L227.85-0.61L227.85-0.61Q226.28-1.93 226.28-3.82L226.28-3.82L226.28-3.82Q226.28-4.87 226.38-5.39L226.38-5.39L228.73-17.85L235.83-18.55L233.28-5.04L233.28-5.04Q233.14-4.27 233.14-3.82L233.14-3.82L233.14-3.82Q233.14-1.79 234.36-1.79L234.36-1.79L234.36-1.79Q235.73-1.79 236.71-3.64L236.71-3.64L236.71-3.64Q237.02-4.24 237.16-5.01L237.16-5.01L239.65-17.85L246.54-18.55L243.95-4.90L243.95-4.90Q243.85-4.38 243.85-3.82L243.85-3.82L243.85-3.82Q243.85-3.26 244.16-2.64L244.16-2.64L244.16-2.64Q244.48-2.03 245.49-1.89L245.49-1.89L245.49-1.89Q245.28-1.05 244.55-0.49L244.55-0.49L244.55-0.49Q243.01 0.70 241.34 0.70L241.34 0.70L241.34 0.70Q239.68 0.70 238.70 0.11L238.70 0.11L238.70 0.11Q237.72-0.49 237.44-1.47ZM247.97-1.68L247.97-1.68L252.31-24.50L259.42-25.20L258.34-19.85L258.34-19.85Q257.95-18.20 257.46-17.05L257.46-17.05L257.46-17.05Q258.23-18.03 259.91-18.41L259.91-18.41L259.91-18.41Q260.40-18.55 261.00-18.55L261.00-18.55L261.00-18.55Q264.25-18.55 266.04-16.57L266.04-16.57L266.04-16.57Q267.82-14.60 267.82-10.78L267.82-10.78L267.82-10.78Q267.82-5.81 264.99-2.70L264.99-2.70L264.99-2.70Q261.94 0.70 256.41 0.70L256.41 0.70L256.41 0.70Q252.59 0.70 249.72-0.56L249.72-0.56L249.72-0.56Q248.71-1.02 247.97-1.68ZM256.87-12.25L255.01-2.00L255.01-2.00Q255.75-1.37 256.66-1.37L256.66-1.37L256.66-1.37Q257.56-1.37 258.09-1.72L258.09-1.72L258.09-1.72Q258.62-2.07 259-2.77L259-2.77L259-2.77Q260.05-4.66 260.89-10.43L260.89-10.43L260.89-10.43Q261.13-12.08 261.13-13.72L261.13-13.72L261.13-13.72Q261.13-15.37 260.77-15.89L260.77-15.89L260.77-15.89Q260.40-16.42 259.70-16.42L259.70-16.42L259.70-16.42Q257.56-16.42 256.87-12.25L256.87-12.25Z" fill="#dff3e4"></path></g></g><style>text {
  font-size: 64px;
  font-family: Arial Black;
  dominant-baseline: central;
  text-anchor: middle;
}</style></svg>