<svg width="653.3450439453125px" height="123.68000183105468px" xmlns="http://www.w3.org/2000/svg" viewBox="-76.67252197265623 13.159999084472659 653.3450439453125 123.68000183105468" style="background: none;" preserveAspectRatio="xMidYMid"><defs><filter id="editing-crystal" x="-100%" y="-100%" width="300%" height="300%"><feMorphology operator="dilate" radius="2" in="SourceGraphic" result="border"></feMorphology><feFlood flood-color="#fff" result="black"></feFlood><feMorphology operator="dilate" radius="2" in="SourceGraphic" result="erode"></feMorphology><feGaussianBlur in="erode" stdDeviation="4" result="blur"></feGaussianBlur><feOffset in="blur" dx="2" dy="2" result="offset"></feOffset><feComposite operator="atop" in="offset" in2="black" result="merge"></feComposite><feComposite operator="in" in="merge" in2="SourceGraphic" result="inner-shadow"></feComposite><feGaussianBlur in="SourceGraphic" stdDeviation="2.5" result="shadow1"></feGaussianBlur><feOffset in="shadow1" dx="0" dy="5" result="shadow"></feOffset><feSpecularLighting in="SourceGraphic" result="specular" surfaceScale="1.5" specularConstant="100" specularExponent="10" lighting-color="#ffffff"><fePointLight x="250" y="-300" z="-400"></fePointLight></feSpecularLighting><feGaussianBlur in="specular" stdDeviation="1" result="specular2"></feGaussianBlur><feComposite operator="in" in="specular2" in2="SourceAlpha" result="specular3"></feComposite><feMerge result="merge"><feMergeNode in="border"></feMergeNode><feMergeNode in="inner-shadow"></feMergeNode><feMergeNode in="specular3"></feMergeNode></feMerge><feComponentTransfer in="merge" result="final"><feFuncA type="linear" slope="0.9" intercept="0"></feFuncA></feComponentTransfer><feMerge><feMergeNode in="shadow"></feMergeNode><feMergeNode in="final"></feMergeNode></feMerge></filter></defs><g filter="url(#editing-crystal)"><g transform="translate(2.640009880065918, 104.44000244140625)"><path d="M6.02-11.39L6.02-11.39Q6.21-9.22 7.65-7.23L7.65-7.23L7.65-7.23Q9.09-5.25 11.62-4L11.62-4L11.62-4Q14.14-2.75 17.41-2.75L17.41-2.75L17.41-2.75Q22.34-2.75 25.63-4.96L25.63-4.96L25.63-4.96Q28.93-7.17 28.93-11.97L28.93-11.97L28.93-11.97Q28.93-14.78 27.33-16.67L27.33-16.67L27.33-16.67Q25.73-18.56 23.36-19.68L23.36-19.68L23.36-19.68Q20.99-20.80 16.90-22.27L16.90-22.27L16.90-22.27Q12.48-23.81 9.82-25.12L9.82-25.12L9.82-25.12Q7.17-26.43 5.34-28.67L5.34-28.67L5.34-28.67Q3.52-30.91 3.52-34.43L3.52-34.43L3.52-34.43Q3.52-37.25 5.12-39.78L5.12-39.78L5.12-39.78Q6.72-42.30 9.95-43.87L9.95-43.87L9.95-43.87Q13.18-45.44 17.92-45.44L17.92-45.44L17.92-45.44Q21.06-45.44 23.10-44.99L23.10-44.99L23.10-44.99Q25.15-44.54 27.26-43.52L27.26-43.52L26.18-40.13L26.18-40.13Q22.53-41.98 18.05-41.98L18.05-41.98L18.05-41.98Q13.12-41.98 10.18-39.94L10.18-39.94L10.18-39.94Q7.23-37.89 7.23-34.24L7.23-34.24L7.23-34.24Q7.23-31.94 8.70-30.37L8.70-30.37L8.70-30.37Q10.18-28.80 12.32-27.84L12.32-27.84L12.32-27.84Q14.46-26.88 18.30-25.54L18.30-25.54L18.30-25.54Q22.98-23.94 25.86-22.56L25.86-22.56L25.86-22.56Q28.74-21.18 30.75-18.66L30.75-18.66L30.75-18.66Q32.77-16.13 32.77-12.29L32.77-12.29L32.77-12.29Q32.77-6.40 29.02-2.85L29.02-2.85L29.02-2.85Q25.28 0.70 17.47 0.70L17.47 0.70L17.47 0.70Q12.74 0.70 9.38-1.06L9.38-1.06L9.38-1.06Q6.02-2.82 4.26-5.60L4.26-5.60L4.26-5.60Q2.50-8.38 2.37-11.39L2.37-11.39L6.02-11.39ZM40.90 13.44L40.90-32.06L44.48-32.06L44.16-28.80L44.16-28.80Q45.89-30.66 48.22-31.62L48.22-31.62L48.22-31.62Q50.56-32.58 52.86-32.58L52.86-32.58L52.86-32.58Q58.82-32.58 61.92-29.12L61.92-29.12L61.92-29.12Q65.02-25.66 65.02-20.16L65.02-20.16L65.02-11.26L65.02-11.26Q65.02-5.44 61.76-2.34L61.76-2.34L61.76-2.34Q58.50 0.77 53.12 0.77L53.12 0.77L53.12 0.77Q50.37 0.77 48.26 0L48.26 0L48.26 0Q46.14-0.77 44.48-2.69L44.48-2.69L44.48 12.03L40.90 13.44ZM61.44-20.42L61.44-20.42Q61.44-25.09 58.98-27.20L58.98-27.20L58.98-27.20Q56.51-29.31 53.12-29.31L53.12-29.31L53.12-29.31Q49.66-29.31 47.17-27.23L47.17-27.23L47.17-27.23Q44.67-25.15 44.48-20.74L44.48-20.74L44.48-10.62L44.48-10.62Q44.48-6.46 46.85-4.48L46.85-4.48L46.85-4.48Q49.22-2.50 53.12-2.50L53.12-2.50L53.12-2.50Q56.64-2.50 59.04-4.58L59.04-4.58L59.04-4.58Q61.44-6.66 61.44-10.62L61.44-10.62L61.44-20.42ZM96-11.78L96-11.78Q96-6.40 93.06-2.88L93.06-2.88L93.06-2.88Q90.11 0.64 84.16 0.64L84.16 0.64L84.16 0.64Q78.21 0.64 75.17-2.91L75.17-2.91L75.17-2.91Q72.13-6.46 72.13-11.78L72.13-11.78L72.13-20.22L72.13-20.22Q72.13-26.30 75.23-29.54L75.23-29.54L75.23-29.54Q78.34-32.77 84.16-32.77L84.16-32.77L84.16-32.77Q89.73-32.77 92.86-29.41L92.86-29.41L92.86-29.41Q96-26.05 96-20.22L96-20.22L96-11.78ZM92.42-20.22L92.42-20.22Q92.42-25.02 90.21-27.26L90.21-27.26L90.21-27.26Q88-29.50 84.16-29.50L84.16-29.50L84.16-29.50Q80.19-29.50 77.95-27.26L77.95-27.26L77.95-27.26Q75.71-25.02 75.71-20.22L75.71-20.22L75.71-11.14L75.71-11.14Q75.71-7.30 77.98-4.93L77.98-4.93L77.98-4.93Q80.26-2.56 84.16-2.56L84.16-2.56L84.16-2.56Q88.13-2.56 90.27-4.90L90.27-4.90L90.27-4.90Q92.42-7.23 92.42-11.14L92.42-11.14L92.42-20.22ZM102.02 0L102.02-32.06L105.60-32.06L105.41-29.82L105.41-29.82Q108.42-32.64 113.28-32.64L113.28-32.64L113.28-32.64Q115.01-32.64 118.02-32.06L118.02-32.06L117.06-28.80L117.06-28.80Q115.01-29.44 112.77-29.44L112.77-29.44L112.77-29.44Q109.82-29.44 107.71-28.35L107.71-28.35L107.71-28.35Q105.60-27.26 105.60-25.09L105.60-25.09L105.60 0L102.02 0ZM129.02 0.83L129.02 0.83Q125.44-0.19 123.84-2.43L123.84-2.43L123.84-2.43Q122.24-4.67 122.24-8.45L122.24-8.45L122.24-44.80L125.82-44.80L125.82-32.06L133.50-32.06L131.97-28.67L125.82-28.67L125.82-8.45L125.82-8.45Q125.82-3.33 130.05-1.92L130.05-1.92L129.02 0.83ZM139.97 0L139.97-44.80L154.11-44.80L154.11-44.80Q159.36-44.80 162.37-42.11L162.37-42.11L162.37-42.11Q165.38-39.42 165.38-33.92L165.38-33.92L165.38-33.92Q165.38-31.42 164.54-29.18L164.54-29.18L164.54-29.18Q163.71-26.94 161.15-25.22L161.15-25.22L161.09-25.09L161.09-25.02L161.09-25.02Q163.90-23.74 165.79-20.86L165.79-20.86L165.79-20.86Q167.68-17.98 167.68-13.38L167.68-13.38L167.68-13.38Q167.68-7.87 164.70-3.94L164.70-3.94L164.70-3.94Q161.73 0 154.69 0L154.69 0L139.97 0ZM153.98-26.43L153.98-26.43Q157.57-26.43 159.62-28.35L159.62-28.35L159.62-28.35Q161.66-30.27 161.66-33.92L161.66-33.92L161.66-33.92Q161.66-41.41 153.60-41.41L153.60-41.41L143.55-41.41L143.55-26.43L153.98-26.43ZM154.56-3.39L154.56-3.39Q158.85-3.39 161.34-5.70L161.34-5.70L161.34-5.70Q163.84-8 163.84-13.63L163.84-13.63L163.84-13.63Q163.84-18.11 161.41-20.51L161.41-20.51L161.41-20.51Q158.98-22.91 155.65-22.91L155.65-22.91L143.55-22.91L143.55-3.39L154.56-3.39ZM173.70 0L173.70-32.06L177.28-32.06L177.09-29.82L177.09-29.82Q180.10-32.64 184.96-32.64L184.96-32.64L184.96-32.64Q186.69-32.64 189.70-32.06L189.70-32.06L188.74-28.80L188.74-28.80Q186.69-29.44 184.45-29.44L184.45-29.44L184.45-29.44Q181.50-29.44 179.39-28.35L179.39-28.35L179.39-28.35Q177.28-27.26 177.28-25.09L177.28-25.09L177.28 0L173.70 0ZM218.11 0L218.11 0Q211.20 0.70 208.13 0.70L208.13 0.70L208.13 0.70Q201.41 0.70 197.44-1.79L197.44-1.79L197.44-1.79Q193.47-4.29 193.47-10.82L193.47-10.82L193.47-16.13L193.47-16.13Q193.47-22.46 197.89-24.64L197.89-24.64L197.89-24.64Q200-25.73 203.26-25.73L203.26-25.73L203.26-25.73Q206.27-25.73 209.34-24.74L209.34-24.74L209.34-24.74Q212.42-23.74 214.53-22.14L214.53-22.14L214.53-22.14Q214.53-25.66 212.48-27.74L212.48-27.74L212.48-27.74Q210.43-29.82 204.61-29.82L204.61-29.82L204.80-32.58L204.80-32.58Q210.94-32.58 213.86-30.62L213.86-30.62L213.86-30.62Q216.77-28.67 217.44-25.98L217.44-25.98L217.44-25.98Q218.11-23.30 218.11-19.07L218.11-19.07L218.11 0ZM214.53-19.39L214.53-19.39Q211.90-20.61 208.93-21.50L208.93-21.50L208.93-21.50Q205.95-22.40 203.46-22.40L203.46-22.40L203.46-22.40Q196.99-22.40 196.99-15.94L196.99-15.94L196.99-10.37L196.99-10.37Q196.99-6.21 199.87-4.32L199.87-4.32L199.87-4.32Q202.75-2.43 208.06-2.43L208.06-2.43L208.06-2.43Q210.82-2.43 214.53-2.94L214.53-2.94L214.53-19.39ZM243.33-0.38L243.33-0.38Q239.36 0.64 235.65 0.64L235.65 0.64L235.65 0.64Q232.19 0.64 229.89-0.13L229.89-0.13L229.89-0.13Q226.11-1.41 224.42-4.06L224.42-4.06L224.42-4.06Q222.72-6.72 222.72-11.52L222.72-11.52L222.72-19.71L222.72-19.71Q222.72-26.05 226.05-29.34L226.05-29.34L226.05-29.34Q229.38-32.64 234.62-32.64L234.62-32.64L234.62-32.64Q238.78-32.64 243.20-30.59L243.20-30.59L242.18-27.97L242.18-27.97Q238.53-29.44 235.14-29.44L235.14-29.44L235.14-29.44Q231.17-29.44 228.74-27.17L228.74-27.17L228.74-27.17Q226.30-24.90 226.30-20.10L226.30-20.10L226.30-10.82L226.30-10.82Q226.30-6.40 228.96-4.42L228.96-4.42L228.96-4.42Q231.62-2.43 236.03-2.43L236.03-2.43L236.03-2.43Q238.91-2.43 242.56-3.26L242.56-3.26L243.33-0.38ZM268.42 0L256.13-20.29L252.80-17.41L252.80 0L249.22 0L249.22-44.80L252.80-44.80L252.80-21.44L265.60-33.28L268.16-30.78L258.69-22.53L258.69-22.53Q263.04-15.30 272.70 0L272.70 0L268.42 0ZM296.38-2.24L296.38-2.24Q294.08-0.77 291.14 0L291.14 0L291.14 0Q288.19 0.77 285.25 0.77L285.25 0.77L285.25 0.77Q280.51 0.77 277.73-1.57L277.73-1.57L277.73-1.57Q274.94-3.90 274.94-8.58L274.94-8.58L274.94-21.70L274.94-21.70Q274.94-26.88 278.18-29.76L278.18-29.76L278.18-29.76Q281.41-32.64 286.72-32.64L286.72-32.64L286.72-32.64Q292.03-32.64 295.01-29.79L295.01-29.79L295.01-29.79Q297.98-26.94 297.98-21.89L297.98-21.89L297.98-13.57L278.53-12.48L278.53-8.58L278.53-8.58Q278.53-5.50 280.51-3.97L280.51-3.97L280.51-3.97Q282.50-2.43 285.70-2.43L285.70-2.43L285.70-2.43Q290.18-2.43 294.98-4.99L294.98-4.99L296.38-2.24ZM294.40-22.34L294.40-22.34Q294.40-26.30 291.90-27.94L291.90-27.94L291.90-27.94Q289.41-29.57 286.66-29.57L286.66-29.57L286.66-29.57Q283.14-29.57 280.83-27.65L280.83-27.65L280.83-27.65Q278.53-25.73 278.53-21.63L278.53-21.63L278.53-16L294.40-16.77L294.40-22.34ZM310.08 0.83L310.08 0.83Q306.50-0.19 304.90-2.43L304.90-2.43L304.90-2.43Q303.30-4.67 303.30-8.45L303.30-8.45L303.30-44.80L306.88-44.80L306.88-32.06L314.56-32.06L313.02-28.67L306.88-28.67L306.88-8.45L306.88-8.45Q306.88-3.33 311.10-1.92L311.10-1.92L310.08 0.83ZM326.91 0L326.91-41.60L316.03-41.60L316.03-44.80L341.76-44.80L341.76-41.60L330.50-41.60L330.50 0L326.91 0ZM345.66 0L345.66-32.06L349.25-32.06L349.06-29.82L349.06-29.82Q352.06-32.64 356.93-32.64L356.93-32.64L356.93-32.64Q358.66-32.64 361.66-32.06L361.66-32.06L360.70-28.80L360.70-28.80Q358.66-29.44 356.42-29.44L356.42-29.44L356.42-29.44Q353.47-29.44 351.36-28.35L351.36-28.35L351.36-28.35Q349.25-27.26 349.25-25.09L349.25-25.09L349.25 0L345.66 0ZM390.08 0L390.08 0Q383.17 0.70 380.10 0.70L380.10 0.70L380.10 0.70Q373.38 0.70 369.41-1.79L369.41-1.79L369.41-1.79Q365.44-4.29 365.44-10.82L365.44-10.82L365.44-16.13L365.44-16.13Q365.44-22.46 369.86-24.64L369.86-24.64L369.86-24.64Q371.97-25.73 375.23-25.73L375.23-25.73L375.23-25.73Q378.24-25.73 381.31-24.74L381.31-24.74L381.31-24.74Q384.38-23.74 386.50-22.14L386.50-22.14L386.50-22.14Q386.50-25.66 384.45-27.74L384.45-27.74L384.45-27.74Q382.40-29.82 376.58-29.82L376.58-29.82L376.77-32.58L376.77-32.58Q382.91-32.58 385.82-30.62L385.82-30.62L385.82-30.62Q388.74-28.67 389.41-25.98L389.41-25.98L389.41-25.98Q390.08-23.30 390.08-19.07L390.08-19.07L390.08 0ZM386.50-19.39L386.50-19.39Q383.87-20.61 380.90-21.50L380.90-21.50L380.90-21.50Q377.92-22.40 375.42-22.40L375.42-22.40L375.42-22.40Q368.96-22.40 368.96-15.94L368.96-15.94L368.96-10.37L368.96-10.37Q368.96-6.21 371.84-4.32L371.84-4.32L371.84-4.32Q374.72-2.43 380.03-2.43L380.03-2.43L380.03-2.43Q382.78-2.43 386.50-2.94L386.50-2.94L386.50-19.39ZM415.30-0.38L415.30-0.38Q411.33 0.64 407.62 0.64L407.62 0.64L407.62 0.64Q404.16 0.64 401.86-0.13L401.86-0.13L401.86-0.13Q398.08-1.41 396.38-4.06L396.38-4.06L396.38-4.06Q394.69-6.72 394.69-11.52L394.69-11.52L394.69-19.71L394.69-19.71Q394.69-26.05 398.02-29.34L398.02-29.34L398.02-29.34Q401.34-32.64 406.59-32.64L406.59-32.64L406.59-32.64Q410.75-32.64 415.17-30.59L415.17-30.59L414.14-27.97L414.14-27.97Q410.50-29.44 407.10-29.44L407.10-29.44L407.10-29.44Q403.14-29.44 400.70-27.17L400.70-27.17L400.70-27.17Q398.27-24.90 398.27-20.10L398.27-20.10L398.27-10.82L398.27-10.82Q398.27-6.40 400.93-4.42L400.93-4.42L400.93-4.42Q403.58-2.43 408.00-2.43L408.00-2.43L408.00-2.43Q410.88-2.43 414.53-3.26L414.53-3.26L415.30-0.38ZM440.38 0L428.10-20.29L424.77-17.41L424.77 0L421.18 0L421.18-44.80L424.77-44.80L424.77-21.44L437.57-33.28L440.13-30.78L430.66-22.53L430.66-22.53Q435.01-15.30 444.67 0L444.67 0L440.38 0ZM468.35-2.24L468.35-2.24Q466.05-0.77 463.10 0L463.10 0L463.10 0Q460.16 0.77 457.22 0.77L457.22 0.77L457.22 0.77Q452.48 0.77 449.70-1.57L449.70-1.57L449.70-1.57Q446.91-3.90 446.91-8.58L446.91-8.58L446.91-21.70L446.91-21.70Q446.91-26.88 450.14-29.76L450.14-29.76L450.14-29.76Q453.38-32.64 458.69-32.64L458.69-32.64L458.69-32.64Q464.00-32.64 466.98-29.79L466.98-29.79L466.98-29.79Q469.95-26.94 469.95-21.89L469.95-21.89L469.95-13.57L450.50-12.48L450.50-8.58L450.50-8.58Q450.50-5.50 452.48-3.97L452.48-3.97L452.48-3.97Q454.46-2.43 457.66-2.43L457.66-2.43L457.66-2.43Q462.14-2.43 466.94-4.99L466.94-4.99L468.35-2.24ZM466.37-22.34L466.37-22.34Q466.37-26.30 463.87-27.94L463.87-27.94L463.87-27.94Q461.38-29.57 458.62-29.57L458.62-29.57L458.62-29.57Q455.10-29.57 452.80-27.65L452.80-27.65L452.80-27.65Q450.50-25.73 450.50-21.63L450.50-21.63L450.50-16L466.37-16.77L466.37-22.34ZM476.35 0L476.35-32.06L479.94-32.06L479.74-29.82L479.74-29.82Q482.75-32.64 487.62-32.64L487.62-32.64L487.62-32.64Q489.34-32.64 492.35-32.06L492.35-32.06L491.39-28.80L491.39-28.80Q489.34-29.44 487.10-29.44L487.10-29.44L487.10-29.44Q484.16-29.44 482.05-28.35L482.05-28.35L482.05-28.35Q479.94-27.26 479.94-25.09L479.94-25.09L479.94 0L476.35 0Z" fill="#000000" stroke="#88e0eb" stroke-width="1.5"></path></g></g><style>text {
  font-size: 64px;
  font-family: Arial Black;
  dominant-baseline: central;
  text-anchor: middle;
}</style></svg>