<svg width="509.59999999999997px" height="85.28000183105469px" xmlns="http://www.w3.org/2000/svg" viewBox="-4.799999999999983 32.359999084472655 509.59999999999997 85.28000183105469" style="background: none;" preserveAspectRatio="xMidYMid"><defs><filter id="editing-hole" x="-100%" y="-100%" width="300%" height="300%"><feFlood flood-color="#5e6fa3" result="black"></feFlood><feMorphology operator="dilate" radius="2" in="SourceGraphic" result="erode"></feMorphology><feGaussianBlur in="erode" stdDeviation="4" result="blur"></feGaussianBlur><feOffset in="blur" dx="2" dy="2" result="offset"></feOffset><feComposite operator="atop" in="offset" in2="black" result="merge"></feComposite><feComposite operator="in" in="merge" in2="SourceGraphic" result="inner-shadow"></feComposite></filter></defs><g filter="url(#editing-hole)"><g transform="translate(65.54001951217651, 93.39999961853027)"><path d="M3.76-7.12L3.76-7.12Q3.88-5.76 4.78-4.52L4.78-4.52L4.78-4.52Q5.68-3.28 7.26-2.50L7.26-2.50L7.26-2.50Q8.84-1.72 10.88-1.72L10.88-1.72L10.88-1.72Q13.96-1.72 16.02-3.10L16.02-3.10L16.02-3.10Q18.08-4.48 18.08-7.48L18.08-7.48L18.08-7.48Q18.08-9.24 17.08-10.42L17.08-10.42L17.08-10.42Q16.08-11.60 14.60-12.30L14.60-12.30L14.60-12.30Q13.12-13 10.56-13.92L10.56-13.92L10.56-13.92Q7.80-14.88 6.14-15.70L6.14-15.70L6.14-15.70Q4.48-16.52 3.34-17.92L3.34-17.92L3.34-17.92Q2.20-19.32 2.20-21.52L2.20-21.52L2.20-21.52Q2.20-23.28 3.20-24.86L3.20-24.86L3.20-24.86Q4.20-26.44 6.22-27.42L6.22-27.42L6.22-27.42Q8.24-28.40 11.20-28.40L11.20-28.40L11.20-28.40Q13.16-28.40 14.44-28.12L14.44-28.12L14.44-28.12Q15.72-27.84 17.04-27.20L17.04-27.20L16.36-25.08L16.36-25.08Q14.08-26.24 11.28-26.24L11.28-26.24L11.28-26.24Q8.20-26.24 6.36-24.96L6.36-24.96L6.36-24.96Q4.52-23.68 4.52-21.40L4.52-21.40L4.52-21.40Q4.52-19.96 5.44-18.98L5.44-18.98L5.44-18.98Q6.36-18 7.70-17.40L7.70-17.40L7.70-17.40Q9.04-16.80 11.44-15.96L11.44-15.96L11.44-15.96Q14.36-14.96 16.16-14.10L16.16-14.10L16.16-14.10Q17.96-13.24 19.22-11.66L19.22-11.66L19.22-11.66Q20.48-10.08 20.48-7.68L20.48-7.68L20.48-7.68Q20.48-4 18.14-1.78L18.14-1.78L18.14-1.78Q15.80 0.44 10.92 0.44L10.92 0.44L10.92 0.44Q7.96 0.44 5.86-0.66L5.86-0.66L5.86-0.66Q3.76-1.76 2.66-3.50L2.66-3.50L2.66-3.50Q1.56-5.24 1.48-7.12L1.48-7.12L3.76-7.12ZM25.56 8.40L25.56-20.04L27.80-20.04L27.60-18L27.60-18Q28.68-19.16 30.14-19.76L30.14-19.76L30.14-19.76Q31.60-20.36 33.04-20.36L33.04-20.36L33.04-20.36Q36.76-20.36 38.70-18.20L38.70-18.20L38.70-18.20Q40.64-16.04 40.64-12.60L40.64-12.60L40.64-7.04L40.64-7.04Q40.64-3.40 38.60-1.46L38.60-1.46L38.60-1.46Q36.56 0.48 33.20 0.48L33.20 0.48L33.20 0.48Q31.48 0.48 30.16 0L30.16 0L30.16 0Q28.84-0.48 27.80-1.68L27.80-1.68L27.80 7.52L25.56 8.40ZM38.40-12.76L38.40-12.76Q38.40-15.68 36.86-17L36.86-17L36.86-17Q35.32-18.32 33.20-18.32L33.20-18.32L33.20-18.32Q31.04-18.32 29.48-17.02L29.48-17.02L29.48-17.02Q27.92-15.72 27.80-12.96L27.80-12.96L27.80-6.64L27.80-6.64Q27.80-4.04 29.28-2.80L29.28-2.80L29.28-2.80Q30.76-1.56 33.20-1.56L33.20-1.56L33.20-1.56Q35.40-1.56 36.90-2.86L36.90-2.86L36.90-2.86Q38.40-4.16 38.40-6.64L38.40-6.64L38.40-12.76ZM60-7.36L60-7.36Q60-4 58.16-1.80L58.16-1.80L58.16-1.80Q56.32 0.40 52.60 0.40L52.60 0.40L52.60 0.40Q48.88 0.40 46.98-1.82L46.98-1.82L46.98-1.82Q45.08-4.04 45.08-7.36L45.08-7.36L45.08-12.64L45.08-12.64Q45.08-16.44 47.02-18.46L47.02-18.46L47.02-18.46Q48.96-20.48 52.60-20.48L52.60-20.48L52.60-20.48Q56.08-20.48 58.04-18.38L58.04-18.38L58.04-18.38Q60-16.28 60-12.64L60-12.64L60-7.36ZM57.76-12.64L57.76-12.64Q57.76-15.64 56.38-17.04L56.38-17.04L56.38-17.04Q55-18.44 52.60-18.44L52.60-18.44L52.60-18.44Q50.12-18.44 48.72-17.04L48.72-17.04L48.72-17.04Q47.32-15.64 47.32-12.64L47.32-12.64L47.32-6.96L47.32-6.96Q47.32-4.56 48.74-3.08L48.74-3.08L48.74-3.08Q50.16-1.60 52.60-1.60L52.60-1.60L52.60-1.60Q55.08-1.60 56.42-3.06L56.42-3.06L56.42-3.06Q57.76-4.52 57.76-6.96L57.76-6.96L57.76-12.64ZM63.76 0L63.76-20.04L66-20.04L65.88-18.64L65.88-18.64Q67.76-20.40 70.80-20.40L70.80-20.40L70.80-20.40Q71.88-20.40 73.76-20.04L73.76-20.04L73.16-18L73.16-18Q71.88-18.40 70.48-18.40L70.48-18.40L70.48-18.40Q68.64-18.40 67.32-17.72L67.32-17.72L67.32-17.72Q66-17.04 66-15.68L66-15.68L66 0L63.76 0ZM80.64 0.52L80.64 0.52Q78.40-0.12 77.40-1.52L77.40-1.52L77.40-1.52Q76.40-2.92 76.40-5.28L76.40-5.28L76.40-28L78.64-28L78.64-20.04L83.44-20.04L82.48-17.92L78.64-17.92L78.64-5.28L78.64-5.28Q78.64-2.08 81.28-1.20L81.28-1.20L80.64 0.52ZM87.48 0L87.48-28L96.32-28L96.32-28Q99.60-28 101.48-26.32L101.48-26.32L101.48-26.32Q103.36-24.64 103.36-21.20L103.36-21.20L103.36-21.20Q103.36-19.64 102.84-18.24L102.84-18.24L102.84-18.24Q102.32-16.84 100.72-15.76L100.72-15.76L100.68-15.68L100.68-15.64L100.68-15.64Q102.44-14.84 103.62-13.04L103.62-13.04L103.62-13.04Q104.80-11.24 104.80-8.36L104.80-8.36L104.80-8.36Q104.80-4.92 102.94-2.46L102.94-2.46L102.94-2.46Q101.08 0 96.68 0L96.68 0L87.48 0ZM96.24-16.52L96.24-16.52Q98.48-16.52 99.76-17.72L99.76-17.72L99.76-17.72Q101.04-18.92 101.04-21.20L101.04-21.20L101.04-21.20Q101.04-25.88 96-25.88L96-25.88L89.72-25.88L89.72-16.52L96.24-16.52ZM96.60-2.12L96.60-2.12Q99.28-2.12 100.84-3.56L100.84-3.56L100.84-3.56Q102.40-5 102.40-8.52L102.40-8.52L102.40-8.52Q102.40-11.32 100.88-12.82L100.88-12.82L100.88-12.82Q99.36-14.32 97.28-14.32L97.28-14.32L89.72-14.32L89.72-2.12L96.60-2.12ZM108.56 0L108.56-20.04L110.80-20.04L110.68-18.64L110.68-18.64Q112.56-20.40 115.60-20.40L115.60-20.40L115.60-20.40Q116.68-20.40 118.56-20.04L118.56-20.04L117.96-18L117.96-18Q116.68-18.40 115.28-18.40L115.28-18.40L115.28-18.40Q113.44-18.40 112.12-17.72L112.12-17.72L112.12-17.72Q110.80-17.04 110.80-15.68L110.80-15.68L110.80 0L108.56 0ZM136.32 0L136.32 0Q132 0.44 130.08 0.44L130.08 0.44L130.08 0.44Q125.88 0.44 123.40-1.12L123.40-1.12L123.40-1.12Q120.92-2.68 120.92-6.76L120.92-6.76L120.92-10.08L120.92-10.08Q120.92-14.04 123.68-15.40L123.68-15.40L123.68-15.40Q125-16.08 127.04-16.08L127.04-16.08L127.04-16.08Q128.92-16.08 130.84-15.46L130.84-15.46L130.84-15.46Q132.76-14.84 134.08-13.84L134.08-13.84L134.08-13.84Q134.08-16.04 132.80-17.34L132.80-17.34L132.80-17.34Q131.52-18.64 127.88-18.64L127.88-18.64L128-20.36L128-20.36Q131.84-20.36 133.66-19.14L133.66-19.14L133.66-19.14Q135.48-17.92 135.90-16.24L135.90-16.24L135.90-16.24Q136.32-14.56 136.32-11.92L136.32-11.92L136.32 0ZM134.08-12.12L134.08-12.12Q132.44-12.88 130.58-13.44L130.58-13.44L130.58-13.44Q128.72-14 127.16-14L127.16-14L127.16-14Q123.12-14 123.12-9.96L123.12-9.96L123.12-6.48L123.12-6.48Q123.12-3.88 124.92-2.70L124.92-2.70L124.92-2.70Q126.72-1.52 130.04-1.52L130.04-1.52L130.04-1.52Q131.76-1.52 134.08-1.84L134.08-1.84L134.08-12.12ZM152.08-0.24L152.08-0.24Q149.60 0.40 147.28 0.40L147.28 0.40L147.28 0.40Q145.12 0.40 143.68-0.08L143.68-0.08L143.68-0.08Q141.32-0.88 140.26-2.54L140.26-2.54L140.26-2.54Q139.20-4.20 139.20-7.20L139.20-7.20L139.20-12.32L139.20-12.32Q139.20-16.28 141.28-18.34L141.28-18.34L141.28-18.34Q143.36-20.40 146.64-20.40L146.64-20.40L146.64-20.40Q149.24-20.40 152-19.12L152-19.12L151.36-17.48L151.36-17.48Q149.08-18.40 146.96-18.40L146.96-18.40L146.96-18.40Q144.48-18.40 142.96-16.98L142.96-16.98L142.96-16.98Q141.44-15.56 141.44-12.56L141.44-12.56L141.44-6.76L141.44-6.76Q141.44-4 143.10-2.76L143.10-2.76L143.10-2.76Q144.76-1.52 147.52-1.52L147.52-1.52L147.52-1.52Q149.32-1.52 151.60-2.04L151.60-2.04L152.08-0.24ZM167.76 0L160.08-12.68L158.00-10.88L158.00 0L155.76 0L155.76-28L158.00-28L158.00-13.40L166.00-20.80L167.60-19.24L161.68-14.08L161.68-14.08Q164.40-9.56 170.44 0L170.44 0L167.76 0ZM185.24-1.40L185.24-1.40Q183.80-0.48 181.96 0L181.96 0L181.96 0Q180.12 0.48 178.28 0.48L178.28 0.48L178.28 0.48Q175.32 0.48 173.58-0.98L173.58-0.98L173.58-0.98Q171.84-2.44 171.84-5.36L171.84-5.36L171.84-13.56L171.84-13.56Q171.84-16.80 173.86-18.60L173.86-18.60L173.86-18.60Q175.88-20.40 179.20-20.40L179.20-20.40L179.20-20.40Q182.52-20.40 184.38-18.62L184.38-18.62L184.38-18.62Q186.24-16.84 186.24-13.68L186.24-13.68L186.24-8.48L174.08-7.80L174.08-5.36L174.08-5.36Q174.08-3.44 175.32-2.48L175.32-2.48L175.32-2.48Q176.56-1.52 178.56-1.52L178.56-1.52L178.56-1.52Q181.36-1.52 184.36-3.12L184.36-3.12L185.24-1.40ZM184-13.96L184-13.96Q184-16.44 182.44-17.46L182.44-17.46L182.44-17.46Q180.88-18.48 179.16-18.48L179.16-18.48L179.16-18.48Q176.96-18.48 175.52-17.28L175.52-17.28L175.52-17.28Q174.08-16.08 174.08-13.52L174.08-13.52L174.08-10L184-10.48L184-13.96ZM193.80 0.52L193.80 0.52Q191.56-0.12 190.56-1.52L190.56-1.52L190.56-1.52Q189.56-2.92 189.56-5.28L189.56-5.28L189.56-28L191.80-28L191.80-20.04L196.60-20.04L195.64-17.92L191.80-17.92L191.80-5.28L191.80-5.28Q191.80-2.08 194.44-1.20L194.44-1.20L193.80 0.52ZM200.64 0L200.64-28L210.48-28L210.48-28Q214.28-28 216.14-25.68L216.14-25.68L216.14-25.68Q218-23.36 218-19.44L218-19.44L218-19.44Q218-16.92 217.60-14.90L217.60-14.90L217.60-14.90Q217.20-12.88 215.60-11.34L215.60-11.34L215.60-11.34Q214-9.80 210.76-9.80L210.76-9.80L202.88-9.80L202.88 0L200.64 0ZM210.80-12L210.80-12Q213.04-12 214.14-13.20L214.14-13.20L214.14-13.20Q215.24-14.40 215.50-15.92L215.50-15.92L215.50-15.92Q215.76-17.44 215.76-19.32L215.76-19.32L215.76-19.32Q215.76-22.60 214.40-24.24L214.40-24.24L214.40-24.24Q213.04-25.88 210.64-25.88L210.64-25.88L202.88-25.88L202.88-12L210.80-12ZM221.76 0L221.76-20.04L224.00-20.04L223.88-18.64L223.88-18.64Q225.76-20.40 228.80-20.40L228.80-20.40L228.80-20.40Q229.88-20.40 231.76-20.04L231.76-20.04L231.16-18L231.16-18Q229.88-18.40 228.48-18.40L228.48-18.40L228.48-18.40Q226.64-18.40 225.32-17.72L225.32-17.72L225.32-17.72Q224.00-17.04 224.00-15.68L224.00-15.68L224.00 0L221.76 0ZM247.44-1.40L247.44-1.40Q246-0.48 244.16 0L244.16 0L244.16 0Q242.32 0.48 240.48 0.48L240.48 0.48L240.48 0.48Q237.52 0.48 235.78-0.98L235.78-0.98L235.78-0.98Q234.04-2.44 234.04-5.36L234.04-5.36L234.04-13.56L234.04-13.56Q234.04-16.80 236.06-18.60L236.06-18.60L236.06-18.60Q238.08-20.40 241.40-20.40L241.40-20.40L241.40-20.40Q244.72-20.40 246.58-18.62L246.58-18.62L246.58-18.62Q248.44-16.84 248.44-13.68L248.44-13.68L248.44-8.48L236.28-7.80L236.28-5.36L236.28-5.36Q236.28-3.44 237.52-2.48L237.52-2.48L237.52-2.48Q238.76-1.52 240.76-1.52L240.76-1.52L240.76-1.52Q243.56-1.52 246.56-3.12L246.56-3.12L247.44-1.40ZM246.20-13.96L246.20-13.96Q246.20-16.44 244.64-17.46L244.64-17.46L244.64-17.46Q243.08-18.48 241.36-18.48L241.36-18.48L241.36-18.48Q239.16-18.48 237.72-17.28L237.72-17.28L237.72-17.28Q236.28-16.08 236.28-13.52L236.28-13.52L236.28-10L246.20-10.48L246.20-13.96ZM253.12-13.84L253.12-13.84Q253.12-18.04 256.52-19.60L256.52-19.60L256.52-19.60Q258.16-20.36 260.44-20.36L260.44-20.36L260.44-20.36Q261.92-20.36 263.30-20L263.30-20L263.30-20Q264.68-19.64 265.64-18.96L265.64-18.96L265.64-28L267.88-28L267.88 0L265.68 0.20L265.68 0.20Q263.08 0.48 261.60 0.48L261.60 0.48L261.60 0.48Q260.12 0.48 258.82 0.20L258.82 0.20L258.82 0.20Q257.52-0.08 256.24-0.72L256.24-0.72L256.24-0.72Q254.80-1.44 253.96-2.84L253.96-2.84L253.96-2.84Q253.12-4.24 253.12-6.28L253.12-6.28L253.12-13.84ZM265.64-17L265.64-17Q264.56-17.60 263.16-17.98L263.16-17.98L263.16-17.98Q261.76-18.36 260.40-18.36L260.40-18.36L260.40-18.36Q258.16-18.36 256.74-17.26L256.74-17.26L256.74-17.26Q255.32-16.16 255.32-13.72L255.32-13.72L255.32-6.24L255.32-6.24Q255.32-1.56 261.76-1.56L261.76-1.56L261.76-1.56Q263.28-1.56 265.64-1.92L265.64-1.92L265.64-17ZM273.68-25.72L273.68-25.72Q273.16-25.72 272.74-26.14L272.74-26.14L272.74-26.14Q272.32-26.56 272.32-27.08L272.32-27.08L272.32-27.08Q272.32-27.60 272.72-28L272.72-28L272.72-28Q273.12-28.40 273.68-28.40L273.68-28.40L273.68-28.40Q274.24-28.40 274.62-28.02L274.62-28.02L274.62-28.02Q275-27.64 275-27.08L275-27.08L275-27.08Q275-26.52 274.60-26.12L274.60-26.12L274.60-26.12Q274.20-25.72 273.68-25.72L273.68-25.72ZM272.52 0L272.52-20.04L274.76-20.04L274.76 0L272.52 0ZM292.52-0.24L292.52-0.24Q290.04 0.40 287.72 0.40L287.72 0.40L287.72 0.40Q285.56 0.40 284.12-0.08L284.12-0.08L284.12-0.08Q281.76-0.88 280.70-2.54L280.70-2.54L280.70-2.54Q279.64-4.20 279.64-7.20L279.64-7.20L279.64-12.32L279.64-12.32Q279.64-16.28 281.72-18.34L281.72-18.34L281.72-18.34Q283.80-20.40 287.08-20.40L287.08-20.40L287.08-20.40Q289.68-20.40 292.44-19.12L292.44-19.12L291.80-17.48L291.80-17.48Q289.52-18.40 287.40-18.40L287.40-18.40L287.40-18.40Q284.92-18.40 283.40-16.98L283.40-16.98L283.40-16.98Q281.88-15.56 281.88-12.56L281.88-12.56L281.88-6.76L281.88-6.76Q281.88-4 283.54-2.76L283.54-2.76L283.54-2.76Q285.20-1.52 287.96-1.52L287.96-1.52L287.96-1.52Q289.76-1.52 292.04-2.04L292.04-2.04L292.52-0.24ZM299.52 0.52L299.52 0.52Q297.28-0.12 296.28-1.52L296.28-1.52L296.28-1.52Q295.28-2.92 295.28-5.28L295.28-5.28L295.28-28L297.52-28L297.52-20.04L302.32-20.04L301.36-17.92L297.52-17.92L297.52-5.28L297.52-5.28Q297.52-2.08 300.16-1.20L300.16-1.20L299.52 0.52ZM307.72-25.72L307.72-25.72Q307.20-25.72 306.78-26.14L306.78-26.14L306.78-26.14Q306.36-26.56 306.36-27.08L306.36-27.08L306.36-27.08Q306.36-27.60 306.76-28L306.76-28L306.76-28Q307.16-28.40 307.72-28.40L307.72-28.40L307.72-28.40Q308.28-28.40 308.66-28.02L308.66-28.02L308.66-28.02Q309.04-27.64 309.04-27.08L309.04-27.08L309.04-27.08Q309.04-26.52 308.64-26.12L308.64-26.12L308.64-26.12Q308.24-25.72 307.72-25.72L307.72-25.72ZM306.56 0L306.56-20.04L308.80-20.04L308.80 0L306.56 0ZM330.28-7.36L330.28-7.36Q330.28-4 328.44-1.80L328.44-1.80L328.44-1.80Q326.60 0.40 322.88 0.40L322.88 0.40L322.88 0.40Q319.16 0.40 317.26-1.82L317.26-1.82L317.26-1.82Q315.36-4.04 315.36-7.36L315.36-7.36L315.36-12.64L315.36-12.64Q315.36-16.44 317.30-18.46L317.30-18.46L317.30-18.46Q319.24-20.48 322.88-20.48L322.88-20.48L322.88-20.48Q326.36-20.48 328.32-18.38L328.32-18.38L328.32-18.38Q330.28-16.28 330.28-12.64L330.28-12.64L330.28-7.36ZM328.04-12.64L328.04-12.64Q328.04-15.64 326.66-17.04L326.66-17.04L326.66-17.04Q325.28-18.44 322.88-18.44L322.88-18.44L322.88-18.44Q320.40-18.44 319-17.04L319-17.04L319-17.04Q317.60-15.64 317.60-12.64L317.60-12.64L317.60-6.96L317.60-6.96Q317.60-4.56 319.02-3.08L319.02-3.08L319.02-3.08Q320.44-1.60 322.88-1.60L322.88-1.60L322.88-1.60Q325.36-1.60 326.70-3.06L326.70-3.06L326.70-3.06Q328.04-4.52 328.04-6.96L328.04-6.96L328.04-12.64ZM346.72 0L346.72-13.72L346.72-13.72Q346.72-16.16 345.30-17.26L345.30-17.26L345.30-17.26Q343.88-18.36 341.64-18.36L341.64-18.36L341.64-18.36Q340.28-18.36 338.88-17.98L338.88-17.98L338.88-17.98Q337.48-17.60 336.40-17L336.40-17L336.40 0L334.16 0L334.16-20.04L336.40-20.04L336.24-18.68L336.24-18.68Q337.20-19.52 338.68-19.94L338.68-19.94L338.68-19.94Q340.16-20.36 341.76-20.36L341.76-20.36L341.76-20.36Q343.96-20.36 345.52-19.64L345.52-19.64L345.52-19.64Q347.12-18.92 348.02-17.48L348.02-17.48L348.02-17.48Q348.92-16.04 348.92-13.84L348.92-13.84L348.92 0L346.72 0ZM355.16-5.08L355.16-5.08Q355.40-3.28 356.96-2.38L356.96-2.38L356.96-2.38Q358.52-1.48 360.44-1.48L360.44-1.48L360.44-1.48Q362.24-1.48 363.72-2.30L363.72-2.30L363.72-2.30Q365.20-3.12 365.20-4.96L365.20-4.96L365.20-4.96Q365.20-6.16 364.50-6.94L364.50-6.94L364.50-6.94Q363.80-7.72 362.76-8.20L362.76-8.20L362.76-8.20Q361.72-8.68 359.96-9.24L359.96-9.24L359.96-9.24Q358-9.88 356.76-10.44L356.76-10.44L356.76-10.44Q355.52-11 354.60-12.02L354.60-12.02L354.60-12.02Q353.68-13.04 353.52-14.60L353.52-14.60L353.48-15.08L353.48-15.08Q353.48-16.40 354.22-17.66L354.22-17.66L354.22-17.66Q354.96-18.92 356.50-19.72L356.50-19.72L356.50-19.72Q358.04-20.52 360.36-20.52L360.36-20.52L360.36-20.52Q361.64-20.52 362.62-20.26L362.62-20.26L362.62-20.26Q363.60-20 364.16-19.72L364.16-19.72L364.16-19.72Q364.72-19.44 364.84-19.36L364.84-19.36L364.08-17.52L364.08-17.52Q363.96-17.60 363.50-17.84L363.50-17.84L363.50-17.84Q363.04-18.08 362.20-18.32L362.20-18.32L362.20-18.32Q361.36-18.56 360.36-18.56L360.36-18.56L360.36-18.56Q358.44-18.56 357.08-17.66L357.08-17.66L357.08-17.66Q355.72-16.76 355.72-15.16L355.72-15.16L355.72-15.16Q355.72-13.64 356.96-12.84L356.96-12.84L356.96-12.84Q358.20-12.04 360.76-11.24L360.76-11.24L360.76-11.24Q362.92-10.52 364.24-9.88L364.24-9.88L364.24-9.88Q365.56-9.24 366.50-8.06L366.50-8.06L366.50-8.06Q367.44-6.88 367.44-5L367.44-5L367.44-5Q367.44-2.60 365.66-1L365.66-1L365.66-1Q363.88 0.60 360.44 0.60L360.44 0.60L360.44 0.60Q358.16 0.60 356.50-0.18L356.50-0.18L356.50-0.18Q354.84-0.96 353.98-2.24L353.98-2.24L353.98-2.24Q353.12-3.52 353.04-5.08L353.04-5.08L355.16-5.08Z" fill="#93dbe9"></path></g></g><style>text {
  font-size: 64px;
  font-family: Arial Black;
  dominant-baseline: central;
  text-anchor: middle;
}</style></svg>