<svg width="376.298046875px" height="78.55999908447265px" xmlns="http://www.w3.org/2000/svg" viewBox="61.850976562499994 35.720000457763675 376.298046875 78.55999908447265" style="background: none;" preserveAspectRatio="xMidYMid"><defs><filter id="editing-crystal" x="-100%" y="-100%" width="300%" height="300%"><feMorphology operator="dilate" radius="2" in="SourceGraphic" result="border"></feMorphology><feFlood flood-color="#fff" result="black"></feFlood><feMorphology operator="dilate" radius="2" in="SourceGraphic" result="erode"></feMorphology><feGaussianBlur in="erode" stdDeviation="4" result="blur"></feGaussianBlur><feOffset in="blur" dx="2" dy="2" result="offset"></feOffset><feComposite operator="atop" in="offset" in2="black" result="merge"></feComposite><feComposite operator="in" in="merge" in2="SourceGraphic" result="inner-shadow"></feComposite><feGaussianBlur in="SourceGraphic" stdDeviation="2.5" result="shadow1"></feGaussianBlur><feOffset in="shadow1" dx="0" dy="5" result="shadow"></feOffset><feSpecularLighting in="SourceGraphic" result="specular" surfaceScale="1.5" specularConstant="100" specularExponent="10" lighting-color="#ffffff"><fePointLight x="250" y="-300" z="-400"></fePointLight></feSpecularLighting><feGaussianBlur in="specular" stdDeviation="1" result="specular2"></feGaussianBlur><feComposite operator="in" in="specular2" in2="SourceAlpha" result="specular3"></feComposite><feMerge result="merge"><feMergeNode in="border"></feMergeNode><feMergeNode in="inner-shadow"></feMergeNode><feMergeNode in="specular3"></feMergeNode></feMerge><feComponentTransfer in="merge" result="final"><feFuncA type="linear" slope="0.9" intercept="0"></feFuncA></feComponentTransfer><feMerge><feMergeNode in="shadow"></feMergeNode><feMergeNode in="final"></feMergeNode></feMerge></filter></defs><g filter="url(#editing-crystal)"><g transform="translate(110.861123919487, 91.56000137329102)"><path d="M3.38-6.41L3.38-6.41Q3.49-5.18 4.30-4.07L4.30-4.07L4.30-4.07Q5.11-2.95 6.53-2.25L6.53-2.25L6.53-2.25Q7.96-1.55 9.79-1.55L9.79-1.55L9.79-1.55Q12.56-1.55 14.42-2.79L14.42-2.79L14.42-2.79Q16.27-4.03 16.27-6.73L16.27-6.73L16.27-6.73Q16.27-8.32 15.37-9.38L15.37-9.38L15.37-9.38Q14.47-10.44 13.14-11.07L13.14-11.07L13.14-11.07Q11.81-11.70 9.50-12.53L9.50-12.53L9.50-12.53Q7.02-13.39 5.53-14.13L5.53-14.13L5.53-14.13Q4.03-14.87 3.01-16.13L3.01-16.13L3.01-16.13Q1.98-17.39 1.98-19.37L1.98-19.37L1.98-19.37Q1.98-20.95 2.88-22.37L2.88-22.37L2.88-22.37Q3.78-23.80 5.60-24.68L5.60-24.68L5.60-24.68Q7.42-25.56 10.08-25.56L10.08-25.56L10.08-25.56Q11.84-25.56 13.00-25.31L13.00-25.31L13.00-25.31Q14.15-25.06 15.34-24.48L15.34-24.48L14.72-22.57L14.72-22.57Q12.67-23.62 10.15-23.62L10.15-23.62L10.15-23.62Q7.38-23.62 5.72-22.46L5.72-22.46L5.72-22.46Q4.07-21.31 4.07-19.26L4.07-19.26L4.07-19.26Q4.07-17.96 4.90-17.08L4.90-17.08L4.90-17.08Q5.72-16.20 6.93-15.66L6.93-15.66L6.93-15.66Q8.14-15.12 10.30-14.36L10.30-14.36L10.30-14.36Q12.92-13.46 14.54-12.69L14.54-12.69L14.54-12.69Q16.16-11.92 17.30-10.49L17.30-10.49L17.30-10.49Q18.43-9.07 18.43-6.91L18.43-6.91L18.43-6.91Q18.43-3.60 16.33-1.60L16.33-1.60L16.33-1.60Q14.22 0.40 9.83 0.40L9.83 0.40L9.83 0.40Q7.16 0.40 5.27-0.59L5.27-0.59L5.27-0.59Q3.38-1.58 2.39-3.15L2.39-3.15L2.39-3.15Q1.40-4.72 1.33-6.41L1.33-6.41L3.38-6.41ZM23.00 7.56L23.00-18.04L25.02-18.04L24.84-16.20L24.84-16.20Q25.81-17.24 27.13-17.78L27.13-17.78L27.13-17.78Q28.44-18.32 29.74-18.32L29.74-18.32L29.74-18.32Q33.08-18.32 34.83-16.38L34.83-16.38L34.83-16.38Q36.58-14.44 36.58-11.34L36.58-11.34L36.58-6.34L36.58-6.34Q36.58-3.06 34.74-1.31L34.74-1.31L34.74-1.31Q32.90 0.43 29.88 0.43L29.88 0.43L29.88 0.43Q28.33 0.43 27.14 0L27.14 0L27.14 0Q25.96-0.43 25.02-1.51L25.02-1.51L25.02 6.77L23.00 7.56ZM34.56-11.48L34.56-11.48Q34.56-14.11 33.17-15.30L33.17-15.30L33.17-15.30Q31.79-16.49 29.88-16.49L29.88-16.49L29.88-16.49Q27.94-16.49 26.53-15.32L26.53-15.32L26.53-15.32Q25.13-14.15 25.02-11.66L25.02-11.66L25.02-5.98L25.02-5.98Q25.02-3.64 26.35-2.52L26.35-2.52L26.35-2.52Q27.68-1.40 29.88-1.40L29.88-1.40L29.88-1.40Q31.86-1.40 33.21-2.57L33.21-2.57L33.21-2.57Q34.56-3.74 34.56-5.98L34.56-5.98L34.56-11.48ZM54-6.62L54-6.62Q54-3.60 52.34-1.62L52.34-1.62L52.34-1.62Q50.69 0.36 47.34 0.36L47.34 0.36L47.34 0.36Q43.99 0.36 42.28-1.64L42.28-1.64L42.28-1.64Q40.57-3.64 40.57-6.62L40.57-6.62L40.57-11.38L40.57-11.38Q40.57-14.80 42.32-16.61L42.32-16.61L42.32-16.61Q44.06-18.43 47.34-18.43L47.34-18.43L47.34-18.43Q50.47-18.43 52.24-16.54L52.24-16.54L52.24-16.54Q54-14.65 54-11.38L54-11.38L54-6.62ZM51.98-11.38L51.98-11.38Q51.98-14.08 50.74-15.34L50.74-15.34L50.74-15.34Q49.50-16.60 47.34-16.60L47.34-16.60L47.34-16.60Q45.11-16.60 43.85-15.34L43.85-15.34L43.85-15.34Q42.59-14.08 42.59-11.38L42.59-11.38L42.59-6.26L42.59-6.26Q42.59-4.10 43.87-2.77L43.87-2.77L43.87-2.77Q45.14-1.44 47.34-1.44L47.34-1.44L47.34-1.44Q49.57-1.44 50.78-2.75L50.78-2.75L50.78-2.75Q51.98-4.07 51.98-6.26L51.98-6.26L51.98-11.38ZM57.38 0L57.38-18.04L59.40-18.04L59.29-16.78L59.29-16.78Q60.98-18.36 63.72-18.36L63.72-18.36L63.72-18.36Q64.69-18.36 66.38-18.04L66.38-18.04L65.84-16.20L65.84-16.20Q64.69-16.56 63.43-16.56L63.43-16.56L63.43-16.56Q61.78-16.56 60.59-15.95L60.59-15.95L60.59-15.95Q59.40-15.34 59.40-14.11L59.40-14.11L59.40 0L57.38 0ZM72.58 0.47L72.58 0.47Q70.56-0.11 69.66-1.37L69.66-1.37L69.66-1.37Q68.76-2.63 68.76-4.75L68.76-4.75L68.76-25.20L70.78-25.20L70.78-18.04L75.10-18.04L74.23-16.13L70.78-16.13L70.78-4.75L70.78-4.75Q70.78-1.87 73.15-1.08L73.15-1.08L72.58 0.47ZM78.73 0L78.73-25.20L86.69-25.20L86.69-25.20Q89.64-25.20 91.33-23.69L91.33-23.69L91.33-23.69Q93.02-22.18 93.02-19.08L93.02-19.08L93.02-19.08Q93.02-17.68 92.56-16.42L92.56-16.42L92.56-16.42Q92.09-15.16 90.65-14.18L90.65-14.18L90.61-14.11L90.61-14.08L90.61-14.08Q92.20-13.36 93.26-11.74L93.26-11.74L93.26-11.74Q94.32-10.12 94.32-7.52L94.32-7.52L94.32-7.52Q94.32-4.43 92.65-2.21L92.65-2.21L92.65-2.21Q90.97 0 87.01 0L87.01 0L78.73 0ZM86.62-14.87L86.62-14.87Q88.63-14.87 89.78-15.95L89.78-15.95L89.78-15.95Q90.94-17.03 90.94-19.08L90.94-19.08L90.94-19.08Q90.94-23.29 86.40-23.29L86.40-23.29L80.75-23.29L80.75-14.87L86.62-14.87ZM86.94-1.91L86.94-1.91Q89.35-1.91 90.76-3.20L90.76-3.20L90.76-3.20Q92.16-4.50 92.16-7.67L92.16-7.67L92.16-7.67Q92.16-10.19 90.79-11.54L90.79-11.54L90.79-11.54Q89.42-12.89 87.55-12.89L87.55-12.89L80.75-12.89L80.75-1.91L86.94-1.91ZM97.70 0L97.70-18.04L99.72-18.04L99.61-16.78L99.61-16.78Q101.30-18.36 104.04-18.36L104.04-18.36L104.04-18.36Q105.01-18.36 106.70-18.04L106.70-18.04L106.16-16.20L106.16-16.20Q105.01-16.56 103.75-16.56L103.75-16.56L103.75-16.56Q102.10-16.56 100.91-15.95L100.91-15.95L100.91-15.95Q99.72-15.34 99.72-14.11L99.72-14.11L99.72 0L97.70 0ZM122.69 0L122.69 0Q118.80 0.40 117.07 0.40L117.07 0.40L117.07 0.40Q113.29 0.40 111.06-1.01L111.06-1.01L111.06-1.01Q108.83-2.41 108.83-6.08L108.83-6.08L108.83-9.07L108.83-9.07Q108.83-12.64 111.31-13.86L111.31-13.86L111.31-13.86Q112.50-14.47 114.34-14.47L114.34-14.47L114.34-14.47Q116.03-14.47 117.76-13.91L117.76-13.91L117.76-13.91Q119.48-13.36 120.67-12.46L120.67-12.46L120.67-12.46Q120.67-14.44 119.52-15.61L119.52-15.61L119.52-15.61Q118.37-16.78 115.09-16.78L115.09-16.78L115.20-18.32L115.20-18.32Q118.66-18.32 120.29-17.23L120.29-17.23L120.29-17.23Q121.93-16.13 122.31-14.62L122.31-14.62L122.31-14.62Q122.69-13.10 122.69-10.73L122.69-10.73L122.69 0ZM120.67-10.91L120.67-10.91Q119.20-11.59 117.52-12.10L117.52-12.10L117.52-12.10Q115.85-12.60 114.44-12.60L114.44-12.60L114.44-12.60Q110.81-12.60 110.81-8.96L110.81-8.96L110.81-5.83L110.81-5.83Q110.81-3.49 112.43-2.43L112.43-2.43L112.43-2.43Q114.05-1.37 117.04-1.37L117.04-1.37L117.04-1.37Q118.58-1.37 120.67-1.66L120.67-1.66L120.67-10.91ZM136.87-0.22L136.87-0.22Q134.64 0.36 132.55 0.36L132.55 0.36L132.55 0.36Q130.61 0.36 129.31-0.07L129.31-0.07L129.31-0.07Q127.19-0.79 126.23-2.29L126.23-2.29L126.23-2.29Q125.28-3.78 125.28-6.48L125.28-6.48L125.28-11.09L125.28-11.09Q125.28-14.65 127.15-16.51L127.15-16.51L127.15-16.51Q129.02-18.36 131.98-18.36L131.98-18.36L131.98-18.36Q134.32-18.36 136.80-17.21L136.80-17.21L136.22-15.73L136.22-15.73Q134.17-16.56 132.26-16.56L132.26-16.56L132.26-16.56Q130.03-16.56 128.66-15.28L128.66-15.28L128.66-15.28Q127.30-14.00 127.30-11.30L127.30-11.30L127.30-6.08L127.30-6.08Q127.30-3.60 128.79-2.48L128.79-2.48L128.79-2.48Q130.28-1.37 132.77-1.37L132.77-1.37L132.77-1.37Q134.39-1.37 136.44-1.84L136.44-1.84L136.87-0.22ZM150.98 0L144.07-11.41L142.20-9.79L142.20 0L140.18 0L140.18-25.20L142.20-25.20L142.20-12.06L149.40-18.72L150.84-17.32L145.51-12.67L145.51-12.67Q147.96-8.60 153.40 0L153.40 0L150.98 0ZM166.72-1.26L166.72-1.26Q165.42-0.43 163.76 0L163.76 0L163.76 0Q162.11 0.43 160.45 0.43L160.45 0.43L160.45 0.43Q157.79 0.43 156.22-0.88L156.22-0.88L156.22-0.88Q154.66-2.20 154.66-4.82L154.66-4.82L154.66-12.20L154.66-12.20Q154.66-15.12 156.47-16.74L156.47-16.74L156.47-16.74Q158.29-18.36 161.28-18.36L161.28-18.36L161.28-18.36Q164.27-18.36 165.94-16.76L165.94-16.76L165.94-16.76Q167.62-15.16 167.62-12.31L167.62-12.31L167.62-7.63L156.67-7.02L156.67-4.82L156.67-4.82Q156.67-3.10 157.79-2.23L157.79-2.23L157.79-2.23Q158.90-1.37 160.70-1.37L160.70-1.37L160.70-1.37Q163.22-1.37 165.92-2.81L165.92-2.81L166.72-1.26ZM165.60-12.56L165.60-12.56Q165.60-14.80 164.20-15.71L164.20-15.71L164.20-15.71Q162.79-16.63 161.24-16.63L161.24-16.63L161.24-16.63Q159.26-16.63 157.97-15.55L157.97-15.55L157.97-15.55Q156.67-14.47 156.67-12.17L156.67-12.17L156.67-9.00L165.60-9.43L165.60-12.56ZM174.42 0.47L174.42 0.47Q172.40-0.11 171.50-1.37L171.50-1.37L171.50-1.37Q170.60-2.63 170.60-4.75L170.60-4.75L170.60-25.20L172.62-25.20L172.62-18.04L176.94-18.04L176.08-16.13L172.62-16.13L172.62-4.75L172.62-4.75Q172.62-1.87 175.00-1.08L175.00-1.08L174.42 0.47ZM183.89 0L183.89-23.40L177.77-23.40L177.77-25.20L192.24-25.20L192.24-23.40L185.90-23.40L185.90 0L183.89 0ZM194.44 0L194.44-18.04L196.45-18.04L196.34-16.78L196.34-16.78Q198.04-18.36 200.77-18.36L200.77-18.36L200.77-18.36Q201.74-18.36 203.44-18.04L203.44-18.04L202.90-16.20L202.90-16.20Q201.74-16.56 200.48-16.56L200.48-16.56L200.48-16.56Q198.83-16.56 197.64-15.95L197.64-15.95L197.64-15.95Q196.45-15.34 196.45-14.11L196.45-14.11L196.45 0L194.44 0ZM219.42 0L219.42 0Q215.53 0.40 213.80 0.40L213.80 0.40L213.80 0.40Q210.02 0.40 207.79-1.01L207.79-1.01L207.79-1.01Q205.56-2.41 205.56-6.08L205.56-6.08L205.56-9.07L205.56-9.07Q205.56-12.64 208.04-13.86L208.04-13.86L208.04-13.86Q209.23-14.47 211.07-14.47L211.07-14.47L211.07-14.47Q212.76-14.47 214.49-13.91L214.49-13.91L214.49-13.91Q216.22-13.36 217.40-12.46L217.40-12.46L217.40-12.46Q217.40-14.44 216.25-15.61L216.25-15.61L216.25-15.61Q215.10-16.78 211.82-16.78L211.82-16.78L211.93-18.32L211.93-18.32Q215.39-18.32 217.03-17.23L217.03-17.23L217.03-17.23Q218.66-16.13 219.04-14.62L219.04-14.62L219.04-14.62Q219.42-13.10 219.42-10.73L219.42-10.73L219.42 0ZM217.40-10.91L217.40-10.91Q215.93-11.59 214.25-12.10L214.25-12.10L214.25-12.10Q212.58-12.60 211.18-12.60L211.18-12.60L211.18-12.60Q207.54-12.60 207.54-8.96L207.54-8.96L207.54-5.83L207.54-5.83Q207.54-3.49 209.16-2.43L209.16-2.43L209.16-2.43Q210.78-1.37 213.77-1.37L213.77-1.37L213.77-1.37Q215.32-1.37 217.40-1.66L217.40-1.66L217.40-10.91ZM233.60-0.22L233.60-0.22Q231.37 0.36 229.28 0.36L229.28 0.36L229.28 0.36Q227.34 0.36 226.04-0.07L226.04-0.07L226.04-0.07Q223.92-0.79 222.97-2.29L222.97-2.29L222.97-2.29Q222.01-3.78 222.01-6.48L222.01-6.48L222.01-11.09L222.01-11.09Q222.01-14.65 223.88-16.51L223.88-16.51L223.88-16.51Q225.76-18.36 228.71-18.36L228.71-18.36L228.71-18.36Q231.05-18.36 233.53-17.21L233.53-17.21L232.96-15.73L232.96-15.73Q230.90-16.56 229.00-16.56L229.00-16.56L229.00-16.56Q226.76-16.56 225.40-15.28L225.40-15.28L225.40-15.28Q224.03-14.00 224.03-11.30L224.03-11.30L224.03-6.08L224.03-6.08Q224.03-3.60 225.52-2.48L225.52-2.48L225.52-2.48Q227.02-1.37 229.50-1.37L229.50-1.37L229.50-1.37Q231.12-1.37 233.17-1.84L233.17-1.84L233.60-0.22ZM247.72 0L240.80-11.41L238.93-9.79L238.93 0L236.92 0L236.92-25.20L238.93-25.20L238.93-12.06L246.13-18.72L247.57-17.32L242.24-12.67L242.24-12.67Q244.69-8.60 250.13 0L250.13 0L247.72 0ZM263.45-1.26L263.45-1.26Q262.15-0.43 260.50 0L260.50 0L260.50 0Q258.84 0.43 257.18 0.43L257.18 0.43L257.18 0.43Q254.52 0.43 252.95-0.88L252.95-0.88L252.95-0.88Q251.39-2.20 251.39-4.82L251.39-4.82L251.39-12.20L251.39-12.20Q251.39-15.12 253.21-16.74L253.21-16.74L253.21-16.74Q255.02-18.36 258.01-18.36L258.01-18.36L258.01-18.36Q261-18.36 262.67-16.76L262.67-16.76L262.67-16.76Q264.35-15.16 264.35-12.31L264.35-12.31L264.35-7.63L253.40-7.02L253.40-4.82L253.40-4.82Q253.40-3.10 254.52-2.23L254.52-2.23L254.52-2.23Q255.64-1.37 257.44-1.37L257.44-1.37L257.44-1.37Q259.96-1.37 262.66-2.81L262.66-2.81L263.45-1.26ZM262.33-12.56L262.33-12.56Q262.33-14.80 260.93-15.71L260.93-15.71L260.93-15.71Q259.52-16.63 257.98-16.63L257.98-16.63L257.98-16.63Q256.00-16.63 254.70-15.55L254.70-15.55L254.70-15.55Q253.40-14.47 253.40-12.17L253.40-12.17L253.40-9.00L262.33-9.43L262.33-12.56ZM267.95 0L267.95-18.04L269.96-18.04L269.86-16.78L269.86-16.78Q271.55-18.36 274.28-18.36L274.28-18.36L274.28-18.36Q275.26-18.36 276.95-18.04L276.95-18.04L276.41-16.20L276.41-16.20Q275.26-16.56 274.00-16.56L274.00-16.56L274.00-16.56Q272.34-16.56 271.15-15.95L271.15-15.95L271.15-15.95Q269.96-15.34 269.96-14.11L269.96-14.11L269.96 0L267.95 0Z" fill="#000000" stroke="#88e0eb" stroke-width="1.5"></path></g></g><style>text {
  font-size: 64px;
  font-family: Arial Black;
  dominant-baseline: central;
  text-anchor: middle;
}</style></svg>